<svg width="80" height="127" viewBox="0 0 80 127" fill="none" xmlns="http://www.w3.org/2000/svg">
<line x1="7.40669" y1="2.07446" x2="73.1362" y2="115.921" stroke="url(#paint0_linear_92_173)" stroke-width="0.972194"/>
<line x1="73.1505" y1="2.24305" x2="7.42092" y2="116.09" stroke="url(#paint1_linear_92_173)" stroke-width="0.972194"/>
<g style="mix-blend-mode:overlay" filter="url(#filter0_dd_92_173)">
<path d="M4 8.40989C4 3.76524 7.78129 0 12.4457 0H67.5543C72.2187 0 76 3.76524 76 8.40989V110.59C76 115.235 72.2187 119 67.5543 119H12.4457C7.78129 119 4 115.235 4 110.59V8.40989Z" fill="url(#paint2_linear_92_173)" fill-opacity="0.2" shape-rendering="crispEdges"/>
<path d="M4.5 8.40989C4.5 4.04338 8.05543 0.5 12.4457 0.5H67.5543C71.9446 0.5 75.5 4.04338 75.5 8.40989V110.59C75.5 114.957 71.9446 118.5 67.5543 118.5H12.4457C8.05543 118.5 4.5 114.957 4.5 110.59V8.40989Z" stroke="url(#paint3_linear_92_173)" shape-rendering="crispEdges"/>
</g>
<defs>
<filter id="filter0_dd_92_173" x="0" y="0" width="80" height="127" filterUnits="userSpaceOnUse" color-interpolation-filters="sRGB">
<feFlood flood-opacity="0" result="BackgroundImageFix"/>
<feColorMatrix in="SourceAlpha" type="matrix" values="0 0 0 0 0 0 0 0 0 0 0 0 0 0 0 0 0 0 127 0" result="hardAlpha"/>
<feOffset dy="4"/>
<feGaussianBlur stdDeviation="2"/>
<feComposite in2="hardAlpha" operator="out"/>
<feColorMatrix type="matrix" values="0 0 0 0 0 0 0 0 0 0 0 0 0 0 0 0 0 0 0.25 0"/>
<feBlend mode="normal" in2="BackgroundImageFix" result="effect1_dropShadow_92_173"/>
<feColorMatrix in="SourceAlpha" type="matrix" values="0 0 0 0 0 0 0 0 0 0 0 0 0 0 0 0 0 0 127 0" result="hardAlpha"/>
<feOffset dy="4"/>
<feGaussianBlur stdDeviation="2"/>
<feComposite in2="hardAlpha" operator="out"/>
<feColorMatrix type="matrix" values="0 0 0 0 0 0 0 0 0 0 0 0 0 0 0 0 0 0 0.25 0"/>
<feBlend mode="normal" in2="effect1_dropShadow_92_173" result="effect2_dropShadow_92_173"/>
<feBlend mode="normal" in="SourceGraphic" in2="effect2_dropShadow_92_173" result="shape"/>
</filter>
<linearGradient id="paint0_linear_92_173" x1="6.55271" y1="2.5675" x2="72.2822" y2="116.414" gradientUnits="userSpaceOnUse">
<stop stop-color="white"/>
<stop offset="1" stop-color="#999999" stop-opacity="0"/>
</linearGradient>
<linearGradient id="paint1_linear_92_173" x1="72.2965" y1="1.75" x2="6.56693" y2="115.597" gradientUnits="userSpaceOnUse">
<stop stop-color="white"/>
<stop offset="1" stop-color="#999999" stop-opacity="0"/>
</linearGradient>
<linearGradient id="paint2_linear_92_173" x1="40" y1="0" x2="40" y2="119" gradientUnits="userSpaceOnUse">
<stop stop-color="white"/>
<stop offset="1" stop-color="white" stop-opacity="0.5"/>
</linearGradient>
<linearGradient id="paint3_linear_92_173" x1="40" y1="0" x2="40" y2="119" gradientUnits="userSpaceOnUse">
<stop stop-color="white"/>
<stop offset="1" stop-color="white" stop-opacity="0.5"/>
</linearGradient>
</defs>
</svg>
